<?xml version="1.0" encoding="UTF-8" standalone="no"?>
<!DOCTYPE svg PUBLIC "-//W3C//DTD SVG 1.1//EN" "http://www.w3.org/Graphics/SVG/1.1/DTD/svg11.dtd">
<svg xmlns="http://www.w3.org/2000/svg" version="1.1" viewBox="0.00 0.00 576.00 508.00">
<g stroke-width="2.00" fill="none" stroke-linecap="butt">
<path stroke="#467293" vector-effect="non-scaling-stroke" d="
  M 278.23 229.02
  A 1.02 1.02 0.0 0 0 279.37 227.65
  Q 273.40 212.11 278.50 196.50
  C 282.41 184.53 289.37 173.84 295.48 163.24
  C 301.89 152.13 303.70 136.90 295.54 126.58
  Q 289.19 118.53 278.66 114.96
  A 1.19 1.18 18.8 0 0 277.15 115.70
  Q 277.02 116.10 277.22 116.84
  Q 281.12 131.08 277.55 144.07
  C 275.88 150.17 272.89 155.86 269.77 161.26
  Q 263.95 171.32 259.80 179.26
  C 256.92 184.76 255.04 190.45 254.44 196.47
  C 252.79 212.85 261.93 225.92 278.23 229.02"
/>
<path stroke="#467293" vector-effect="non-scaling-stroke" d="
  M 340.95 228.96
  A 1.02 1.01 84.6 0 0 342.08 227.59
  Q 336.06 212.16 341.06 196.61
  C 344.88 184.68 351.75 174.01 357.77 163.44
  C 364.09 152.36 365.81 137.20 357.65 126.97
  Q 351.29 119.00 340.80 115.50
  A 1.18 1.18 0.0 0 0 339.30 116.25
  Q 339.17 116.65 339.37 117.38
  Q 343.33 131.52 339.84 144.46
  C 338.21 150.54 335.27 156.21 332.19 161.60
  Q 326.45 171.64 322.37 179.56
  C 319.53 185.04 317.69 190.71 317.12 196.70
  C 315.57 213.00 324.72 225.96 340.95 228.96"
/>
<path stroke="#467293" vector-effect="non-scaling-stroke" d="
  M 216.10 228.90
  A 1.02 1.01 84.9 0 0 217.23 227.54
  Q 211.30 212.10 216.37 196.59
  C 220.26 184.70 227.18 174.08 233.25 163.55
  C 239.62 152.51 241.42 137.38 233.31 127.12
  Q 227.00 119.12 216.54 115.57
  A 1.18 1.18 0.0 0 0 215.04 116.31
  Q 214.91 116.71 215.11 117.44
  Q 218.98 131.59 215.44 144.50
  C 213.78 150.56 210.80 156.21 207.70 161.58
  Q 201.92 171.57 197.79 179.46
  C 194.93 184.92 193.06 190.58 192.47 196.56
  C 190.82 212.83 199.90 225.82 216.10 228.90"
/>
<path stroke="#467293" vector-effect="non-scaling-stroke" d="
  M 272.04 257.17
  Q 133.26 257.35 131.42 257.39
  A 1.26 1.25 -0.3 0 0 130.19 258.62
  C 130.05 269.06 130.00 280.47 131.92 290.93
  Q 138.04 324.18 157.84 348.98
  C 181.20 378.25 215.93 397.19 253.20 400.59
  Q 261.48 401.35 272.22 401.33
  Q 282.97 401.32 291.25 400.54
  C 328.51 397.04 363.19 378.01 386.47 348.68
  Q 406.21 323.83 412.24 290.57
  C 414.14 280.10 414.06 268.69 413.89 258.25
  A 1.26 1.25 0.1 0 0 412.66 257.03
  Q 410.82 256.99 272.04 257.17"
/>
</g>
<path fill="#272362" d="
  M 244.94 33.10
  Q 287.24 33.57 426.25 33.31
  Q 431.85 33.30 443.56 35.21
  Q 456.33 37.30 468.67 45.61
  C 486.60 57.69 498.77 76.79 500.53 98.77
  Q 501.63 112.37 501.53 121.75
  Q 500.98 176.40 501.37 359.25
  Q 501.41 377.45 500.78 392.00
  C 500.41 400.73 498.70 409.84 495.01 417.83
  Q 483.29 443.28 458.47 454.66
  Q 450.22 458.44 438.72 460.43
  C 434.91 461.09 430.86 461.17 426.89 461.52
  Q 423.42 461.82 422.16 461.81
  Q 395.98 461.72 375.50 461.65
  Q 249.72 461.21 133.50 461.26
  C 127.60 461.26 119.25 459.88 112.92 457.80
  Q 101.81 454.16 91.78 447.60
  Q 87.86 445.04 86.27 443.27
  C 83.21 439.85 79.74 437.26 76.80 433.60
  Q 66.49 420.77 63.37 407.21
  Q 62.16 401.96 60.74 389.94
  Q 60.12 384.71 60.57 372.49
  Q 60.98 361.48 61.00 354.50
  C 61.14 302.52 61.88 253.10 61.42 199.84
  Q 61.01 152.33 61.43 104.68
  Q 61.52 94.96 62.21 91.37
  C 63.96 82.21 68.27 72.61 73.37 64.87
  Q 89.25 40.76 117.58 34.79
  Q 120.39 34.20 127.85 33.72
  Q 132.82 33.41 138.17 33.43
  Q 143.92 33.46 154.00 33.33
  Q 158.74 33.26 242.75 33.10
  Q 244.32 33.10 244.94 33.10
  Z
  M 278.23 229.02
  A 1.02 1.02 0.0 0 0 279.37 227.65
  Q 273.40 212.11 278.50 196.50
  C 282.41 184.53 289.37 173.84 295.48 163.24
  C 301.89 152.13 303.70 136.90 295.54 126.58
  Q 289.19 118.53 278.66 114.96
  A 1.19 1.18 18.8 0 0 277.15 115.70
  Q 277.02 116.10 277.22 116.84
  Q 281.12 131.08 277.55 144.07
  C 275.88 150.17 272.89 155.86 269.77 161.26
  Q 263.95 171.32 259.80 179.26
  C 256.92 184.76 255.04 190.45 254.44 196.47
  C 252.79 212.85 261.93 225.92 278.23 229.02
  Z
  M 340.95 228.96
  A 1.02 1.01 84.6 0 0 342.08 227.59
  Q 336.06 212.16 341.06 196.61
  C 344.88 184.68 351.75 174.01 357.77 163.44
  C 364.09 152.36 365.81 137.20 357.65 126.97
  Q 351.29 119.00 340.80 115.50
  A 1.18 1.18 0.0 0 0 339.30 116.25
  Q 339.17 116.65 339.37 117.38
  Q 343.33 131.52 339.84 144.46
  C 338.21 150.54 335.27 156.21 332.19 161.60
  Q 326.45 171.64 322.37 179.56
  C 319.53 185.04 317.69 190.71 317.12 196.70
  C 315.57 213.00 324.72 225.96 340.95 228.96
  Z
  M 216.10 228.90
  A 1.02 1.01 84.9 0 0 217.23 227.54
  Q 211.30 212.10 216.37 196.59
  C 220.26 184.70 227.18 174.08 233.25 163.55
  C 239.62 152.51 241.42 137.38 233.31 127.12
  Q 227.00 119.12 216.54 115.57
  A 1.18 1.18 0.0 0 0 215.04 116.31
  Q 214.91 116.71 215.11 117.44
  Q 218.98 131.59 215.44 144.50
  C 213.78 150.56 210.80 156.21 207.70 161.58
  Q 201.92 171.57 197.79 179.46
  C 194.93 184.92 193.06 190.58 192.47 196.56
  C 190.82 212.83 199.90 225.82 216.10 228.90
  Z
  M 272.04 257.17
  Q 133.26 257.35 131.42 257.39
  A 1.26 1.25 -0.3 0 0 130.19 258.62
  C 130.05 269.06 130.00 280.47 131.92 290.93
  Q 138.04 324.18 157.84 348.98
  C 181.20 378.25 215.93 397.19 253.20 400.59
  Q 261.48 401.35 272.22 401.33
  Q 282.97 401.32 291.25 400.54
  C 328.51 397.04 363.19 378.01 386.47 348.68
  Q 406.21 323.83 412.24 290.57
  C 414.14 280.10 414.06 268.69 413.89 258.25
  A 1.26 1.25 0.1 0 0 412.66 257.03
  Q 410.82 256.99 272.04 257.17
  Z"
/>
<path fill="#64c0c3" d="
  M 278.23 229.02
  C 261.93 225.92 252.79 212.85 254.44 196.47
  C 255.04 190.45 256.92 184.76 259.80 179.26
  Q 263.95 171.32 269.77 161.26
  C 272.89 155.86 275.88 150.17 277.55 144.07
  Q 281.12 131.08 277.22 116.84
  Q 277.02 116.10 277.15 115.70
  A 1.19 1.18 18.8 0 1 278.66 114.96
  Q 289.19 118.53 295.54 126.58
  C 303.70 136.90 301.89 152.13 295.48 163.24
  C 289.37 173.84 282.41 184.53 278.50 196.50
  Q 273.40 212.11 279.37 227.65
  A 1.02 1.02 0.0 0 1 278.23 229.02
  Z"
/>
<path fill="#64c0c3" d="
  M 340.95 228.96
  C 324.72 225.96 315.57 213.00 317.12 196.70
  C 317.69 190.71 319.53 185.04 322.37 179.56
  Q 326.45 171.64 332.19 161.60
  C 335.27 156.21 338.21 150.54 339.84 144.46
  Q 343.33 131.52 339.37 117.38
  Q 339.17 116.65 339.30 116.25
  A 1.18 1.18 0.0 0 1 340.80 115.50
  Q 351.29 119.00 357.65 126.97
  C 365.81 137.20 364.09 152.36 357.77 163.44
  C 351.75 174.01 344.88 184.68 341.06 196.61
  Q 336.06 212.16 342.08 227.59
  A 1.02 1.01 84.6 0 1 340.95 228.96
  Z"
/>
<path fill="#64c0c3" d="
  M 216.10 228.90
  C 199.90 225.82 190.82 212.83 192.47 196.56
  C 193.06 190.58 194.93 184.92 197.79 179.46
  Q 201.92 171.57 207.70 161.58
  C 210.80 156.21 213.78 150.56 215.44 144.50
  Q 218.98 131.59 215.11 117.44
  Q 214.91 116.71 215.04 116.31
  A 1.18 1.18 0.0 0 1 216.54 115.57
  Q 227.00 119.12 233.31 127.12
  C 241.42 137.38 239.62 152.51 233.25 163.55
  C 227.18 174.08 220.26 184.70 216.37 196.59
  Q 211.30 212.10 217.23 227.54
  A 1.02 1.01 84.9 0 1 216.10 228.90
  Z"
/>
<path fill="#64c0c3" d="
  M 272.22 401.33
  Q 261.48 401.35 253.20 400.59
  C 215.93 397.19 181.20 378.25 157.84 348.98
  Q 138.04 324.18 131.92 290.93
  C 130.00 280.47 130.05 269.06 130.19 258.62
  A 1.26 1.25 -0.3 0 1 131.42 257.39
  Q 133.26 257.35 272.04 257.17
  Q 410.82 256.99 412.66 257.03
  A 1.26 1.25 0.1 0 1 413.89 258.25
  C 414.06 268.69 414.14 280.10 412.24 290.57
  Q 406.21 323.83 386.47 348.68
  C 363.19 378.01 328.51 397.04 291.25 400.54
  Q 282.97 401.32 272.22 401.33
  Z"
/>
</svg>
